  0
SECTION
  2
HEADER
  9
$ACADVER
  1
AC1009
  9
$EXTMIN
 10
0.0
 20
0.0
 30
0.0
  9
$EXTMAX
 10
100.0
 20
100.0
 30
0.0
  9
$INSBASE
 10
0.0
 20
0.0
 30
0.0
  0
ENDSEC
  0
SECTION
  2
TABLES
  0
TABLE
  2
LTYPE
 70
19
  0
LTYPE
  2
PHANTOM
 70
0
  3
Phantom ______  __  __  ______  __  __  ______
 72
65
 73
6
 40
2.5
 49
1.25
 49
-0.25
 49
0.25
 49
-0.25
 49
0.25
 49
-0.25
  0
LTYPE
  2
DOT2
 70
0
  3
Dot (.5) . . . . . . . . . . . . . . . . . . . 
 72
65
 73
2
 40
0.1
 49
0.0
 49
-0.1
  0
LTYPE
  2
DIVIDE
 70
0
  3
Divide __ . . __ . . __ . . __ . . __ . . __
 72
65
 73
6
 40
1.6
 49
1.0
 49
-0.2
 49
0.0
 49
-0.2
 49
0.0
 49
-0.2
  0
LTYPE
  2
DIVIDEX2
 70
0
  3
Divide (2x) ____  . .  ____  . .  ____  . .  ____
 72
65
 73
6
 40
2.6
 49
2.0
 49
-0.2
 49
0.0
 49
-0.2
 49
0.0
 49
-0.2
  0
LTYPE
  2
CENTER
 70
0
  3
Center ____ _ ____ _ ____ _ ____ _ ____ _ ____
 72
65
 73
4
 40
2.0
 49
1.25
 49
-0.25
 49
0.25
 49
-0.25
  0
LTYPE
  2
DASHDOT
 70
0
  3
Dash dot __ . __ . __ . __ . __ . __ . __ . __
 72
65
 73
4
 40
1.4
 49
1.0
 49
-0.2
 49
0.0
 49
-0.2
  0
LTYPE
  2
CENTERX2
 70
0
  3
Center (2x) ________  __  ________  __  ________
 72
65
 73
4
 40
3.5
 49
2.5
 49
-0.25
 49
0.5
 49
-0.25
  0
LTYPE
  2
PHANTOMX2
 70
0
  3
Phantom (2x)____________    ____    ____    ____________
 72
65
 73
6
 40
4.25
 49
2.5
 49
-0.25
 49
0.5
 49
-0.25
 49
0.5
 49
-0.25
  0
LTYPE
  2
CONTINUOUS
 70
0
  3
Solid
 72
65
 73
0
 40
0.0
  0
LTYPE
  2
PHANTOM2
 70
0
  3
Phantom (.5x) ___ _ _ ___ _ _ ___ _ _ ___ _ _ ___
 72
65
 73
6
 40
1.25
 49
0.625
 49
-0.125
 49
0.125
 49
-0.125
 49
0.125
 49
-0.125
  0
LTYPE
  2
DASHED
 70
0
  3
Dashed __ __ __ __ __ __ __ __ __ __ __ __ __ _
 72
65
 73
2
 40
0.6
 49
0.5
 49
-0.1
  0
LTYPE
  2
DASHED2
 70
0
  3
Dashed (.5x) _ _ _ _ _ _ _ _ _ _ _ _ _ _
 72
65
 73
2
 40
0.3
 49
0.25
 49
-0.05
  0
LTYPE
  2
DASHDOT2
 70
0
  3
Dash dot (.5x) _ . _ . _ . _ . _ . _ . _ . _
 72
65
 73
4
 40
0.7
 49
0.5
 49
-0.1
 49
0.0
 49
-0.1
  0
LTYPE
  2
DOTX2
 70
0
  3
Dot (2x) .    .    .    .    .    .    .    . 
 72
65
 73
2
 40
0.4
 49
0.0
 49
-0.4
  0
LTYPE
  2
DIVIDE2
 70
0
  3
Divide(.5x) _ . _ . _ . _ . _ . _ . _ . _
 72
65
 73
6
 40
0.8
 49
0.5
 49
-0.1
 49
0.0
 49
-0.1
 49
0.0
 49
-0.1
  0
LTYPE
  2
CENTER2
 70
0
  3
Center (.5x) ____ _ ____ _ ____ _ ____ _ ____
 72
65
 73
4
 40
1.0
 49
0.625
 49
-0.125
 49
0.125
 49
-0.125
  0
LTYPE
  2
DASHDOTX2
 70
0
  3
Dash dot (2x) ____  .  ____  .  ____  .  ____
 72
65
 73
4
 40
2.4
 49
2.0
 49
-0.2
 49
0.0
 49
-0.2
  0
LTYPE
  2
DOT
 70
0
  3
Dot .  .  .  .  .  .  .  .  .  .  .  .  .  .  .  .
 72
65
 73
2
 40
0.2
 49
0.0
 49
-0.2
  0
LTYPE
  2
DASHEDX2
 70
0
  3
Dashed (2x) ____  ____  ____  ____  ____  ____
 72
65
 73
2
 40
1.2
 49
1.0
 49
-0.2
  0
ENDTAB
  0
TABLE
  2
LAYER
 70
5
  0
LAYER
  2
2D
 70
0
 62
1
  6
CONTINUOUS
  0
LAYER
  2
TABLEGRID
 70
0
 62
1
  6
CONTINUOUS
  0
LAYER
  2
TABLECONTENT
 70
0
 62
1
  6
CONTINUOUS
  0
LAYER
  2
DIMENSIONS
 70
0
 62
1
  6
CONTINUOUS
  0
LAYER
  2
TABLEBACKGROUND
 70
0
 62
1
  6
CONTINUOUS
  0
ENDTAB
  0
TABLE
  2
STYLE
 70
12
  0
STYLE
  2
TIMES
 70
0
 40
0.0
 41
1.0
 42
1.0
 50
0.0
 71
0
  3
times.ttf
  4

  0
STYLE
  2
ARIAL
 70
0
 40
0.0
 41
1.0
 42
1.0
 50
0.0
 71
0
  3
arial.ttf
  4

  0
STYLE
  2
TIMES_BOLD
 70
0
 40
0.0
 41
1.0
 42
1.0
 50
0.0
 71
0
  3
timesbd.ttf
  4

  0
STYLE
  2
ARIAL_BLACK
 70
0
 40
0.0
 41
1.0
 42
1.0
 50
0.0
 71
0
  3
ariblk.ttf
  4

  0
STYLE
  2
TIMES_ITALIC
 70
0
 40
0.0
 41
1.0
 42
1.0
 50
0.0
 71
0
  3
timesi.ttf
  4

  0
STYLE
  2
ISOCPEUR
 70
0
 40
0.0
 41
1.0
 42
1.0
 50
0.0
 71
0
  3
isocpeur.ttf
  4

  0
STYLE
  2
ARIAL_BOLD
 70
0
 40
0.0
 41
1.0
 42
1.0
 50
0.0
 71
0
  3
arialbd.ttf
  4

  0
STYLE
  2
ARIAL_ITALIC
 70
0
 40
0.0
 41
1.0
 42
1.0
 50
0.0
 71
0
  3
ariali.ttf
  4

  0
STYLE
  2
ARIAL_BOLD_ITALIC
 70
0
 40
0.0
 41
1.0
 42
1.0
 50
0.0
 71
0
  3
arialbi.ttf
  4

  0
STYLE
  2
TIMES_BOLD_ITALIC
 70
0
 40
0.0
 41
1.0
 42
1.0
 50
0.0
 71
0
  3
timesbi.ttf
  4

  0
STYLE
  2
ISOCPEUR_ITALIC
 70
0
 40
0.0
 41
1.0
 42
1.0
 50
0.0
 71
0
  3
isocpeui.ttf
  4

  0
STYLE
  2
STANDARD
 70
0
 40
0.0
 41
1.0
 42
1.0
 50
0.0
 71
0
  3
arial.ttf
  4

  0
ENDTAB
  0
TABLE
  2
VIEW
 70
0
  0
ENDTAB
  0
TABLE
  2
APPID
 70
1
  0
APPID
  2
DXFWRITE
 70
0
  0
ENDTAB
  0
TABLE
  2
VPORT
 70
0
  0
ENDTAB
  0
TABLE
  2
UCS
 70
0
  0
ENDTAB
  0
ENDSEC
  0
SECTION
  2
BLOCKS
  0
ENDSEC
  0
SECTION
  2
ENTITIES
  0
LINE
 62
7
  8
2D
 10
0.0
 20
0.0
 30
0.0
 11
120.0
 21
0.0
 31
0.0
  0
LINE
 62
7
  8
2D
 10
0.0
 20
5.0
 30
0.0
 11
120.0
 21
5.0
 31
0.0
  0
LINE
 62
7
  8
2D
 10
0.0
 20
10.0
 30
0.0
 11
120.0
 21
10.0
 31
0.0
  0
LINE
 62
7
  8
2D
 10
0.0
 20
15.0
 30
0.0
 11
120.0
 21
15.0
 31
0.0
  0
LINE
 62
7
  8
2D
 10
0.0
 20
20.0
 30
0.0
 11
120.0
 21
20.0
 31
0.0
  0
LINE
 62
7
  8
2D
 10
0.0
 20
25.0
 30
0.0
 11
120.0
 21
25.0
 31
0.0
  0
LINE
 62
7
  8
2D
 10
0.0
 20
30.0
 30
0.0
 11
120.0
 21
30.0
 31
0.0
  0
LINE
 62
7
  8
2D
 10
0.0
 20
35.0
 30
0.0
 11
120.0
 21
35.0
 31
0.0
  0
LINE
 62
7
  8
2D
 10
0.0
 20
40.0
 30
0.0
 11
120.0
 21
40.0
 31
0.0
  0
LINE
 62
7
  8
2D
 10
0.0
 20
45.0
 30
0.0
 11
120.0
 21
45.0
 31
0.0
  0
LINE
 62
7
  8
2D
 10
0.0
 20
50.0
 30
0.0
 11
120.0
 21
50.0
 31
0.0
  0
LINE
 62
7
  8
2D
 10
0.0
 20
55.0
 30
0.0
 11
120.0
 21
55.0
 31
0.0
  0
LINE
 62
7
  8
2D
 10
0.0
 20
60.0
 30
0.0
 11
120.0
 21
60.0
 31
0.0
  0
LINE
 62
7
  8
2D
 10
0.0
 20
65.0
 30
0.0
 11
120.0
 21
65.0
 31
0.0
  0
LINE
 62
7
  8
2D
 10
0.0
 20
70.0
 30
0.0
 11
120.0
 21
70.0
 31
0.0
  0
LINE
 62
7
  8
2D
 10
0.0
 20
75.0
 30
0.0
 11
120.0
 21
75.0
 31
0.0
  0
LINE
 62
7
  8
2D
 10
0.0
 20
80.0
 30
0.0
 11
120.0
 21
80.0
 31
0.0
  0
LINE
 62
7
  8
2D
 10
0.0
 20
85.0
 30
0.0
 11
120.0
 21
85.0
 31
0.0
  0
LINE
 62
7
  8
2D
 10
0.0
 20
90.0
 30
0.0
 11
120.0
 21
90.0
 31
0.0
  0
LINE
 62
7
  8
2D
 10
0.0
 20
95.0
 30
0.0
 11
120.0
 21
95.0
 31
0.0
  0
LINE
 62
7
  8
2D
 10
0.0
 20
100.0
 30
0.0
 11
120.0
 21
100.0
 31
0.0
  0
LINE
 62
7
  8
2D
 10
0.0
 20
105.0
 30
0.0
 11
120.0
 21
105.0
 31
0.0
  0
LINE
 62
7
  8
2D
 10
0.0
 20
110.0
 30
0.0
 11
120.0
 21
110.0
 31
0.0
  0
LINE
 62
7
  8
2D
 10
0.0
 20
115.0
 30
0.0
 11
120.0
 21
115.0
 31
0.0
  0
LINE
 62
7
  8
2D
 10
0.0
 20
120.0
 30
0.0
 11
120.0
 21
120.0
 31
0.0
  0
LINE
 62
7
  8
2D
 10
0.0
 20
0.0
 30
0.0
 11
0.0
 21
120.0
 31
0.0
  0
LINE
 62
7
  8
2D
 10
5.0
 20
0.0
 30
0.0
 11
5.0
 21
120.0
 31
0.0
  0
LINE
 62
7
  8
2D
 10
10.0
 20
0.0
 30
0.0
 11
10.0
 21
120.0
 31
0.0
  0
LINE
 62
7
  8
2D
 10
15.0
 20
0.0
 30
0.0
 11
15.0
 21
120.0
 31
0.0
  0
LINE
 62
7
  8
2D
 10
20.0
 20
0.0
 30
0.0
 11
20.0
 21
120.0
 31
0.0
  0
LINE
 62
7
  8
2D
 10
25.0
 20
0.0
 30
0.0
 11
25.0
 21
120.0
 31
0.0
  0
LINE
 62
7
  8
2D
 10
30.0
 20
0.0
 30
0.0
 11
30.0
 21
120.0
 31
0.0
  0
LINE
 62
7
  8
2D
 10
35.0
 20
0.0
 30
0.0
 11
35.0
 21
120.0
 31
0.0
  0
LINE
 62
7
  8
2D
 10
40.0
 20
0.0
 30
0.0
 11
40.0
 21
120.0
 31
0.0
  0
LINE
 62
7
  8
2D
 10
45.0
 20
0.0
 30
0.0
 11
45.0
 21
120.0
 31
0.0
  0
LINE
 62
7
  8
2D
 10
50.0
 20
0.0
 30
0.0
 11
50.0
 21
120.0
 31
0.0
  0
LINE
 62
7
  8
2D
 10
55.0
 20
0.0
 30
0.0
 11
55.0
 21
120.0
 31
0.0
  0
LINE
 62
7
  8
2D
 10
60.0
 20
0.0
 30
0.0
 11
60.0
 21
120.0
 31
0.0
  0
LINE
 62
7
  8
2D
 10
65.0
 20
0.0
 30
0.0
 11
65.0
 21
120.0
 31
0.0
  0
LINE
 62
7
  8
2D
 10
70.0
 20
0.0
 30
0.0
 11
70.0
 21
120.0
 31
0.0
  0
LINE
 62
7
  8
2D
 10
75.0
 20
0.0
 30
0.0
 11
75.0
 21
120.0
 31
0.0
  0
LINE
 62
7
  8
2D
 10
80.0
 20
0.0
 30
0.0
 11
80.0
 21
120.0
 31
0.0
  0
LINE
 62
7
  8
2D
 10
85.0
 20
0.0
 30
0.0
 11
85.0
 21
120.0
 31
0.0
  0
LINE
 62
7
  8
2D
 10
90.0
 20
0.0
 30
0.0
 11
90.0
 21
120.0
 31
0.0
  0
LINE
 62
7
  8
2D
 10
95.0
 20
0.0
 30
0.0
 11
95.0
 21
120.0
 31
0.0
  0
LINE
 62
7
  8
2D
 10
100.0
 20
0.0
 30
0.0
 11
100.0
 21
120.0
 31
0.0
  0
LINE
 62
7
  8
2D
 10
105.0
 20
0.0
 30
0.0
 11
105.0
 21
120.0
 31
0.0
  0
LINE
 62
7
  8
2D
 10
110.0
 20
0.0
 30
0.0
 11
110.0
 21
120.0
 31
0.0
  0
LINE
 62
7
  8
2D
 10
115.0
 20
0.0
 30
0.0
 11
115.0
 21
120.0
 31
0.0
  0
ENDSEC
  0
EOF
